<?xml version="1.0" encoding="UTF-8"?> <svg xmlns="http://www.w3.org/2000/svg" id="Layer_1" data-name="Layer 1" viewBox="0 0 665.52 215.85"><defs><style>.cls-1{fill:#14b9f1;}.cls-2{fill:#8a8c8f;}</style></defs><title>sovos-logo-tagline</title><path d="M151.91,236.39a38.39,38.39,0,0,0-12.19-10.11,34.37,34.37,0,0,0-16.9-4.3,32.33,32.33,0,0,0-14.69,3.33q-6.64,3.31-6.65,11.08t7.34,11q7.34,3.18,21.48,6.51a122.37,122.37,0,0,1,15.1,4.43,55.05,55.05,0,0,1,13.85,7.35A36.18,36.18,0,0,1,169.37,277q3.87,6.79,3.88,16.49,0,12.19-4.57,20.64a38.75,38.75,0,0,1-12.2,13.71,51.16,51.16,0,0,1-17.73,7.63,92.59,92.59,0,0,1-20.92,2.35,83,83,0,0,1-30.21-5.68,63.72,63.72,0,0,1-24.38-16.21l21.89-20.51a43.63,43.63,0,0,0,14.41,11.92A41.27,41.27,0,0,0,119.21,312a34.16,34.16,0,0,0,7.35-.83,24.85,24.85,0,0,0,6.92-2.63,14.3,14.3,0,0,0,5.13-4.85,13.69,13.69,0,0,0,1.94-7.48q0-8.33-7.62-11.92t-22.86-7.2a109.32,109.32,0,0,1-14.55-4.3,47.27,47.27,0,0,1-12.61-6.93,32,32,0,0,1-8.86-10.66q-3.33-6.37-3.33-15.8,0-11.08,4.57-19.12a39.26,39.26,0,0,1,12.06-13.16,53.94,53.94,0,0,1,16.9-7.62,75.18,75.18,0,0,1,19.4-2.5,81.8,81.8,0,0,1,28.12,5q13.72,5,21.76,15.24Z" transform="translate(-63.24 -197.04)"></path><path d="M183.51,266.87a70.3,70.3,0,0,1,5.69-28.68,66.91,66.91,0,0,1,15.37-22,68.07,68.07,0,0,1,23-14.13,82.55,82.55,0,0,1,56.53,0,68,68,0,0,1,23,14.13,67.08,67.08,0,0,1,15.38,22,70.29,70.29,0,0,1,5.68,28.68,71.27,71.27,0,0,1-5.68,28.82A68.18,68.18,0,0,1,307.1,318a70.24,70.24,0,0,1-23,14.55,78.57,78.57,0,0,1-56.53,0,70.34,70.34,0,0,1-23-14.55,68,68,0,0,1-15.37-22.31,71.28,71.28,0,0,1-5.69-28.82m33.81,0a52.83,52.83,0,0,0,2.36,15.52,42.44,42.44,0,0,0,7.06,13.86,36.88,36.88,0,0,0,11.92,10,40,40,0,0,0,34.36,0,37,37,0,0,0,11.91-10A42.65,42.65,0,0,0,292,282.39a53.16,53.16,0,0,0,2.36-15.52A51.89,51.89,0,0,0,292,251.49a43,43,0,0,0-7.07-13.71A35.62,35.62,0,0,0,273,227.94a41.33,41.33,0,0,0-34.36,0,35.56,35.56,0,0,0-11.92,9.84,42.8,42.8,0,0,0-7.06,13.71,51.57,51.57,0,0,0-2.36,15.38" transform="translate(-63.24 -197.04)"></path><path d="M470.17,266.87a70.29,70.29,0,0,1,5.68-28.68,66.94,66.94,0,0,1,15.38-22,67.88,67.88,0,0,1,23-14.13,82.52,82.52,0,0,1,56.52,0,67.88,67.88,0,0,1,23,14.13,66.94,66.94,0,0,1,15.38,22,70.29,70.29,0,0,1,5.68,28.68,71.27,71.27,0,0,1-5.68,28.82A68,68,0,0,1,593.75,318a70.13,70.13,0,0,1-23,14.55,78.55,78.55,0,0,1-56.52,0,70.13,70.13,0,0,1-23-14.55,68,68,0,0,1-15.38-22.31,71.27,71.27,0,0,1-5.68-28.82m33.8,0a53.16,53.16,0,0,0,2.36,15.52,42.46,42.46,0,0,0,7.07,13.86,36.74,36.74,0,0,0,11.91,10,40,40,0,0,0,34.36,0,37.09,37.09,0,0,0,11.92-10,42.83,42.83,0,0,0,7.06-13.86A53.16,53.16,0,0,0,581,266.87a51.89,51.89,0,0,0-2.36-15.38,43.21,43.21,0,0,0-7.06-13.71,35.76,35.76,0,0,0-11.92-9.84,41.33,41.33,0,0,0-34.36,0,35.42,35.42,0,0,0-11.91,9.84,42.83,42.83,0,0,0-7.07,13.71A51.89,51.89,0,0,0,504,266.87" transform="translate(-63.24 -197.04)"></path><path d="M707.15,236.39A38.44,38.44,0,0,0,695,226.28a34.34,34.34,0,0,0-16.9-4.3,32.29,32.29,0,0,0-14.68,3.33q-6.66,3.31-6.66,11.08t7.35,11q7.34,3.18,21.47,6.51a123,123,0,0,1,15.11,4.43,55.4,55.4,0,0,1,13.85,7.35A36,36,0,0,1,724.6,277q3.89,6.79,3.88,16.49,0,12.19-4.57,20.64a38.72,38.72,0,0,1-12.19,13.71A51.16,51.16,0,0,1,694,335.46a92.61,92.61,0,0,1-20.93,2.35,83,83,0,0,1-30.2-5.68,63.84,63.84,0,0,1-24.39-16.21l21.89-20.51a43.73,43.73,0,0,0,14.41,11.92A41.31,41.31,0,0,0,674.45,312a34,34,0,0,0,7.34-.83,24.92,24.92,0,0,0,6.93-2.63,14.46,14.46,0,0,0,5.13-4.85,13.69,13.69,0,0,0,1.94-7.48q0-8.33-7.62-11.92t-22.87-7.2a109.62,109.62,0,0,1-14.54-4.3,47.12,47.12,0,0,1-12.61-6.93,32,32,0,0,1-8.87-10.66q-3.33-6.37-3.32-15.8,0-11.08,4.57-19.12a39.23,39.23,0,0,1,12.05-13.16,54,54,0,0,1,16.91-7.62,75,75,0,0,1,19.39-2.5A81.86,81.86,0,0,1,707,202q13.71,5,21.75,15.24Z" transform="translate(-63.24 -197.04)"></path><polygon class="cls-1" points="319.42 127.18 335.6 158.89 415.54 0 378.66 0 319.38 127.09 319.42 127.18"></polygon><polygon points="331.38 82.78 293.4 0 256.52 0 314.84 117.92 331.38 82.78"></polygon><path class="cls-2" d="M174.19,409.2l1.48-3.28a13.93,13.93,0,0,0,9.21,3.4c4.83,0,6.91-2,6.91-4.53,0-7.19-16.92-2.65-16.92-13.57,0-4.54,3.35-8.4,10.69-8.4a15.82,15.82,0,0,1,9,2.6l-1.32,3.36a13.85,13.85,0,0,0-7.66-2.39c-4.75,0-6.78,2.1-6.78,4.66,0,7.18,16.92,2.69,16.92,13.48,0,4.5-3.43,8.36-10.82,8.36C180.61,412.89,176.43,411.38,174.19,409.2Z" transform="translate(-63.24 -197.04)"></path><path class="cls-2" d="M198.45,397.85c0-8.61,6.3-15,14.88-15s14.81,6.38,14.81,15-6.31,15-14.81,15S198.45,406.47,198.45,397.85Zm25.7,0c0-6.51-4.63-11.3-10.82-11.3s-10.89,4.79-10.89,11.3,4.63,11.3,10.89,11.3S224.15,404.37,224.15,397.85Z" transform="translate(-63.24 -197.04)"></path><path class="cls-2" d="M233.44,383.15h4V408.9h15.12v3.66H233.44Z" transform="translate(-63.24 -197.04)"></path><path class="cls-2" d="M278.53,383.15l-12.25,29.41h-3.95L250,383.15h4.31l10,24.16,10.14-24.16Z" transform="translate(-63.24 -197.04)"></path><path class="cls-2" d="M301.55,408.9v3.66H281.28V383.15H301v3.66H285.27v9h14v3.57h-14v9.49Z" transform="translate(-63.24 -197.04)"></path><path class="cls-2" d="M322.7,386.81h-9.58v-3.66h23.1v3.66h-9.57v25.75H322.7Z" transform="translate(-63.24 -197.04)"></path><path class="cls-2" d="M356.17,405.21H341.33l-3.07,7.35h-4.11l12.65-29.41h3.95l12.69,29.41h-4.19Zm-1.39-3.37-6-14.4-6,14.4Z" transform="translate(-63.24 -197.04)"></path><path class="cls-2" d="M383,412.56l-8.38-12.14-8.26,12.14H361.8l10.49-15.08-9.85-14.33H367l7.82,11.3,7.74-11.3h4.35L377,397.35l10.58,15.21Z" transform="translate(-63.24 -197.04)"></path><path class="cls-2" d="M405.45,386.81v10.25h14v3.61h-14v11.89h-4V383.15h19.71v3.66Z" transform="translate(-63.24 -197.04)"></path><path class="cls-2" d="M423.4,397.85c0-8.61,6.31-15,14.89-15s14.8,6.38,14.8,15-6.3,15-14.8,15S423.4,406.47,423.4,397.85Zm25.7,0c0-6.51-4.63-11.3-10.81-11.3s-10.9,4.79-10.9,11.3,4.63,11.3,10.9,11.3S449.1,404.37,449.1,397.85Z" transform="translate(-63.24 -197.04)"></path><path class="cls-2" d="M477.07,412.56l-6-9c-.56,0-1.16.08-1.76.08h-6.9v8.95h-4V383.15h10.89c7.26,0,11.65,3.87,11.65,10.25,0,4.54-2.23,7.81-6.14,9.29l6.62,9.87ZM477,393.4c0-4.2-2.67-6.59-7.78-6.59h-6.78V400h6.78C474.28,400,477,397.6,477,393.4Z" transform="translate(-63.24 -197.04)"></path><path class="cls-2" d="M515.89,397.69h3.83v11.46a16,16,0,0,1-10.57,3.74c-8.58,0-14.88-6.34-14.88-15s6.3-15,15-15A13.64,13.64,0,0,1,520,387.35L517.49,390a10.76,10.76,0,0,0-8.1-3.41c-6.46,0-11.13,4.75-11.13,11.3s4.67,11.3,11.09,11.3a11.32,11.32,0,0,0,6.54-1.89Z" transform="translate(-63.24 -197.04)"></path><path class="cls-2" d="M524.27,397.85c0-8.61,6.31-15,14.88-15s14.81,6.38,14.81,15-6.31,15-14.81,15S524.27,406.47,524.27,397.85Zm25.7,0c0-6.51-4.63-11.3-10.82-11.3s-10.89,4.79-10.89,11.3,4.63,11.3,10.89,11.3S550,404.37,550,397.85Z" transform="translate(-63.24 -197.04)"></path><path class="cls-2" d="M557,397.85c0-8.61,6.3-15,14.88-15s14.81,6.38,14.81,15-6.31,15-14.81,15S557,406.47,557,397.85Zm25.7,0c0-6.51-4.63-11.3-10.82-11.3S561,391.34,561,397.85s4.63,11.3,10.89,11.3S582.69,404.37,582.69,397.85Z" transform="translate(-63.24 -197.04)"></path><path class="cls-2" d="M592,383.15h11.77c9,0,15.08,6,15.08,14.7s-6.1,14.71-15.08,14.71H592Zm11.53,25.75c6.9,0,11.33-4.45,11.33-11s-4.43-11-11.33-11H596V408.9Z" transform="translate(-63.24 -197.04)"></path><path class="cls-2" d="M634.33,382.73a8,8,0,0,1,3,3,8.5,8.5,0,0,1,1.09,4.24,8.33,8.33,0,0,1-1.12,4.27,8.16,8.16,0,0,1-3,3.05,8.6,8.6,0,0,1-8.49,0,8.16,8.16,0,0,1-3-3,8.68,8.68,0,0,1,0-8.46,8.26,8.26,0,0,1,3-3,8.84,8.84,0,0,1,8.54,0ZM633.48,396a6.58,6.58,0,0,0,2.44-2.5,6.88,6.88,0,0,0,.89-3.48,7,7,0,0,0-.86-3.46,6.49,6.49,0,0,0-2.41-2.44,6.87,6.87,0,0,0-3.47-.89,6.75,6.75,0,0,0-3.47.9,6.45,6.45,0,0,0-2.42,2.47,7.28,7.28,0,0,0,0,6.94,6.36,6.36,0,0,0,2.41,2.47,6.63,6.63,0,0,0,3.43.9A6.7,6.7,0,0,0,633.48,396Zm.52-5.54a2.89,2.89,0,0,1-1.3,1.13l2,3.09h-2.47L630.52,392h-1.64v2.66h-2.47v-9.22h4a4.5,4.5,0,0,1,3,.89,3,3,0,0,1,1.07,2.39A3.26,3.26,0,0,1,634,390.41Zm-3.74-.29a2.06,2.06,0,0,0,1.29-.37,1.28,1.28,0,0,0,.46-1.06,1.31,1.31,0,0,0-.46-1.07,2,2,0,0,0-1.29-.38h-1.41v2.88Z" transform="translate(-63.24 -197.04)"></path></svg> 